<svg width="213" height="43" viewBox="0 0 213 43" fill="none" xmlns="http://www.w3.org/2000/svg">
<g clip-path="url(#clip0_10_166)">
<path d="M9.68182 21.5L4.88375 26.316L0 21.5L4.88375 16.598L9.68182 21.5ZM21.42 9.718L29.7309 18.06L34.6146 13.158L21.42 0L8.31094 13.158L13.1947 18.06L21.42 9.718ZM37.9562 16.598L33.1581 21.5L38.0418 26.402L42.8399 21.5L37.9562 16.598ZM21.42 33.282L13.109 24.94L8.22526 29.842L21.42 43L34.529 29.842L29.7309 24.94L21.42 33.282ZM21.42 26.316L26.3037 21.414L21.42 16.598L16.5362 21.5L21.42 26.316ZM72.4851 26.832C72.4851 23.564 70.7715 22.016 68.1154 20.984C69.829 20.038 71.1999 18.576 71.1999 15.91V15.824C71.1999 12.126 68.2011 9.718 63.4887 9.718H52.5217V33.282H63.6601C68.9722 33.282 72.4851 31.132 72.4851 26.832ZM65.9734 16.77C65.9734 18.576 64.5169 19.264 62.2892 19.264H57.4911V14.276H62.6319C64.7739 14.276 65.9734 15.136 65.9734 16.77ZM67.3443 26.144C67.3443 27.864 65.9734 28.724 63.7458 28.724H57.5768V23.564H63.5744C66.1448 23.564 67.3443 24.51 67.3443 26.144ZM83.2808 33.282V9.718H78.0543V33.282H83.2808ZM111.041 33.282V9.718H105.9V24.252L94.9332 9.718H90.1352V33.282H95.2759V18.318L106.671 33.282H111.041ZM139.658 33.282L129.548 9.546H124.75L114.64 33.282H119.952L122.094 27.95H132.033L134.175 33.282H139.658ZM130.233 23.392H123.979L127.149 15.738L130.233 23.392ZM164.334 33.282V9.718H159.193V24.252L148.226 9.718H143.428V33.282H148.569V18.318L159.964 33.282H164.334ZM190.98 29.498L187.639 26.144C185.754 27.864 184.126 28.896 181.47 28.896C177.443 28.896 174.615 25.542 174.615 21.5V21.414C174.615 17.372 177.443 14.104 181.47 14.104C183.783 14.104 185.668 15.136 187.467 16.77L190.809 12.986C188.667 10.836 186.011 9.374 181.555 9.374C174.358 9.374 169.303 14.878 169.303 21.586V21.5C169.303 28.294 174.444 33.626 181.384 33.626C185.839 33.712 188.581 32.078 190.98 29.498ZM213 33.282V28.638H200.234V23.65H211.286V19.006H200.234V14.19H212.829V9.546H195.093V33.11L213 33.282Z" fill="#A0A2AE"/>
</g>
<defs>
<clipPath id="clip0_10_166">
<rect width="213" height="43" fill="white"/>
</clipPath>
</defs>
</svg>
