<svg width="291" height="33" viewBox="0 0 291 33" fill="none" xmlns="http://www.w3.org/2000/svg">
<g clip-path="url(#clip0_10_169)">
<path d="M2.75989 12.2221L1.27897 13.7042C0.875087 14.1084 0.538515 14.58 0.336572 15.1189C0.134629 15.6579 0 16.1968 0 16.7358C0 17.2747 0.134629 17.8811 0.336572 18.3526C0.538515 18.8916 0.875087 19.3632 1.27897 19.7674L13.1263 31.759C13.3956 32.0284 13.7321 32.2979 14.0687 32.5V17.9484L2.75989 12.2221Z" fill="#3D89F5"/>
<path d="M29.551 12.2221L31.0319 13.7042C31.4358 14.1084 31.7724 14.58 31.9743 15.1189C32.1763 15.6579 32.3109 16.1968 32.3109 16.7358C32.3109 17.2747 32.1763 17.8811 31.9743 18.3526C31.7724 18.8916 31.4358 19.3632 31.0319 19.7674L19.1846 31.759C18.9153 32.0284 18.5788 32.2979 18.2422 32.5V17.9484L29.551 12.2221Z" fill="#1656B9"/>
<path d="M26.7238 9.25789L19.3192 1.78C18.9153 1.37579 18.4441 1.03895 17.9056 0.836842C17.3671 0.634737 16.8286 0.5 16.29 0.5C15.7515 0.5 15.1457 0.634737 14.6745 0.836842C14.136 1.03895 13.6648 1.37579 13.2609 1.78L5.72168 9.25789L16.1554 14.4453L26.7238 9.25789Z" fill="#85B5F8"/>
<path fill-rule="evenodd" clip-rule="evenodd" d="M188.346 5.75474C188.346 5.2158 188.413 4.67685 188.749 4.20527C189.019 3.73369 189.423 3.32948 189.961 3.12737C190.432 2.92527 191.038 2.79053 191.577 2.92527C192.115 2.99264 192.586 3.26211 192.99 3.59895C193.394 4.00316 193.663 4.47474 193.798 5.01369C193.933 5.55264 193.865 6.09158 193.663 6.63053C193.462 7.16948 193.125 7.57369 192.654 7.91053C192.183 8.24737 191.644 8.38211 191.105 8.38211C190.769 8.38211 190.432 8.31474 190.096 8.18001C189.759 8.04527 189.49 7.84316 189.221 7.64106C188.951 7.37158 188.75 7.10211 188.615 6.83264C188.48 6.42843 188.413 6.09158 188.346 5.75474ZM188.548 10.6053H193.596V28.7947H188.548V10.6053ZM54.1208 4.54211H44.4275V28.7947H54.7939C60.2464 28.7947 63.1409 25.9653 63.1409 22.0579C63.2082 20.5758 62.6697 19.0937 61.66 18.0158C60.6503 16.9379 59.2367 16.2642 57.7557 16.1968V15.9947C58.9674 15.7926 60.1117 15.1863 60.9195 14.2432C61.7273 13.3 62.1312 12.0874 62.1312 10.8074C62.1985 7.16948 59.5059 4.54211 54.1208 4.54211ZM57.0153 11.6158C57.0153 13.5695 55.3997 14.7147 53.3803 14.7147L49.4761 14.7821V8.71895H53.4476C55.7363 8.65158 57.0153 9.66211 57.0153 11.6158ZM57.7557 21.5863C57.7557 23.4053 56.6114 24.6179 53.7169 24.6179H49.4761V18.2179H53.7169C54.1881 18.1505 54.7266 18.1505 55.1978 18.2853C55.669 18.42 56.1402 18.6895 56.4768 18.959C56.8806 19.2958 57.1499 19.7 57.3518 20.1042C57.6211 20.5758 57.7557 21.0474 57.7557 21.5863ZM65.6315 28.7947H70.7474L70.6801 4.54211H65.6315V28.7947ZM73.3727 19.7674C73.3727 14.1084 76.8057 10.4032 82.3255 10.4032C87.8453 10.4032 91.2783 14.1758 91.2783 19.7674C91.2783 25.4263 87.8453 29.1316 82.3255 29.1316C76.8057 29.1316 73.3727 25.4263 73.3727 19.7674ZM86.1624 19.7674C86.1624 16.6011 84.8161 14.2432 82.3928 14.2432C79.9022 14.2432 78.5559 16.6011 78.5559 19.7674C78.5559 22.9337 79.8349 25.2916 82.3928 25.2916C84.8834 25.2916 86.1624 22.9337 86.1624 19.7674ZM102.116 10.4032C96.5961 10.4032 93.1631 14.2432 93.1631 19.7674C93.1631 25.2916 96.5288 29.1316 102.116 29.1316C106.895 29.1316 109.924 26.3021 110.194 22.1253H105.414C105.347 22.9337 105.01 23.7421 104.405 24.2811C103.799 24.82 102.991 25.1568 102.183 25.1568C99.8272 25.1568 98.279 23.0684 98.279 19.7C98.279 16.3316 99.8272 14.3105 102.183 14.3105C102.991 14.3105 103.799 14.58 104.405 15.1863C105.01 15.7253 105.414 16.5337 105.414 17.3421H110.194C109.992 13.1653 106.828 10.4032 102.116 10.4032ZM112.819 4.54211H117.867V17.4768H118.137L123.993 10.6053H129.782L123.051 18.4874L130.119 28.7947H124.195L119.214 21.4516L117.867 23.0011V28.7947H112.819V4.54211ZM139.004 10.4032C133.484 10.4032 130.051 14.2432 130.051 19.7674C130.051 25.2916 133.417 29.1316 139.004 29.1316C143.784 29.1316 146.813 26.3021 147.082 22.1253H142.37C142.303 22.9337 141.966 23.7421 141.293 24.2811C140.687 24.82 139.879 25.1568 139.004 25.1568C136.648 25.1568 135.1 23.0684 135.1 19.7C135.1 16.3316 136.648 14.3105 139.004 14.3105C139.812 14.3105 140.62 14.58 141.293 15.1863C141.899 15.7253 142.303 16.5337 142.37 17.3421H147.082C146.947 13.1653 143.716 10.4032 139.004 10.4032ZM154.756 28.7947H149.707V4.54211H154.621V13.839H154.823C155.227 12.7611 155.967 11.8179 156.977 11.2116C157.987 10.6053 159.131 10.2684 160.276 10.4032C164.045 10.4032 166.536 12.9632 166.536 17.2747V28.7947H161.487V18.0832C161.554 17.6116 161.487 17.14 161.353 16.7358C161.218 16.2642 161.016 15.9274 160.679 15.5232C160.343 15.1863 160.006 14.9168 159.535 14.7147C159.131 14.5126 158.66 14.4453 158.189 14.5126C157.718 14.5126 157.246 14.58 156.775 14.7821C156.304 14.9842 155.9 15.2537 155.564 15.5905C155.227 15.9274 154.958 16.3316 154.823 16.8032C154.688 17.2747 154.621 17.7463 154.688 18.2179V28.7947H154.756ZM175.825 18.1505C172.257 18.4874 169.026 19.7 169.026 23.7421C169.026 27.3126 171.584 29.1316 175.085 29.1316C176.162 29.199 177.239 28.9968 178.181 28.4579C179.124 27.919 179.931 27.1779 180.403 26.2347H180.537V28.7947H185.316V16.5337C185.316 12.2221 181.614 10.3358 177.575 10.3358C173.2 10.3358 170.373 12.4242 169.632 15.7253L174.277 16.1295C174.479 15.4558 174.95 14.9168 175.556 14.58C176.162 14.2432 176.835 14.0411 177.508 14.1084C179.191 14.1084 180.201 14.9842 180.201 16.4663C180.268 17.679 179.056 17.8137 175.825 18.1505ZM180.268 20.3063V22.3274C180.268 22.799 180.133 23.2705 179.931 23.6747C179.729 24.079 179.46 24.4832 179.056 24.7526C178.72 25.0895 178.316 25.2916 177.845 25.4263C177.373 25.5611 176.902 25.6284 176.498 25.5611C174.95 25.5611 173.806 24.82 173.806 23.4053C173.806 21.9905 174.95 21.2495 176.768 21.0474C177.979 20.98 179.191 20.7105 180.268 20.3063ZM196.895 28.7947H202.01L201.943 18.2853C201.876 17.8137 201.943 17.3421 202.078 16.8705C202.212 16.399 202.482 15.9947 202.818 15.6579C203.155 15.3211 203.559 15.0516 203.963 14.8495C204.434 14.6474 204.905 14.58 205.376 14.58C205.847 14.58 206.319 14.6474 206.722 14.7821C207.126 14.9842 207.53 15.2537 207.799 15.5905C208.136 15.9274 208.338 16.3316 208.473 16.7358C208.607 17.14 208.675 17.6116 208.607 18.0832V28.7947H213.656V17.2074C213.656 12.9632 211.165 10.3358 207.396 10.3358C206.251 10.2684 205.107 10.5379 204.097 11.2116C203.087 11.8179 202.347 12.7611 201.943 13.839H201.741V10.6053H196.962V28.7947H196.895Z" fill="#A0A2AE"/>
<path fill-rule="evenodd" clip-rule="evenodd" d="M269.19 10.6053H264.411V28.7947H269.459V17.8811C269.392 17.4769 269.459 17.0726 269.594 16.6684C269.729 16.2642 269.931 15.9274 270.2 15.5905C270.469 15.2537 270.806 15.0516 271.21 14.8495C271.613 14.6474 272.017 14.58 272.421 14.58C272.825 14.58 273.162 14.6474 273.566 14.7821C273.902 14.9169 274.239 15.119 274.508 15.3884C274.777 15.6579 274.979 15.9947 275.114 16.3316C275.248 16.6684 275.248 17.0726 275.248 17.4769V28.7947H280.162V17.679C280.095 17.2747 280.162 16.8705 280.297 16.4663C280.432 16.0621 280.634 15.7253 280.903 15.4558C281.172 15.1863 281.509 14.9169 281.913 14.7821C282.316 14.6474 282.72 14.58 283.124 14.58C283.528 14.58 283.932 14.6474 284.269 14.7821C284.605 14.9169 284.942 15.1863 285.211 15.4558C285.48 15.7253 285.682 16.0621 285.817 16.4663C285.951 16.8705 285.951 17.2074 285.951 17.6116V28.7947H291V16.6684C291.067 15.3211 290.596 14.0411 289.788 12.9632C288.981 11.8853 287.836 11.1442 286.557 10.8074C285.278 10.4705 283.865 10.6053 282.653 11.1442C281.441 11.6832 280.432 12.6263 279.826 13.839H279.557C279.22 12.7611 278.614 11.8853 277.672 11.2116C276.797 10.6053 275.652 10.2684 274.575 10.3358C273.498 10.2684 272.354 10.6053 271.479 11.2116C270.536 11.8179 269.863 12.7611 269.527 13.7716H269.325V10.6053H269.19ZM233.85 10.4032C228.33 10.4032 224.965 14.2432 224.965 19.7674C224.965 25.2916 228.263 29.1316 233.985 29.1316C238.764 29.1316 241.861 26.3021 242.062 22.1253H237.35C237.283 22.9337 236.947 23.7421 236.273 24.2811C235.668 24.82 234.86 25.1569 233.985 25.1569C231.629 25.1569 230.081 23.0684 230.081 19.7C230.081 16.3316 231.629 14.3105 233.985 14.3105C234.793 14.3105 235.6 14.58 236.273 15.1863C236.879 15.7253 237.283 16.5337 237.35 17.3421H241.995C241.793 13.1653 238.629 10.4032 233.85 10.4032ZM217.897 24.2811C217.358 24.82 217.089 25.4937 217.089 26.2347C217.089 26.639 217.156 26.9758 217.291 27.3126C217.425 27.6495 217.627 27.9863 217.897 28.2558C218.166 28.5253 218.502 28.7274 218.839 28.8621C219.176 28.9969 219.58 29.0642 219.916 29.0642C220.657 29.0642 221.397 28.7947 221.936 28.2558C222.474 27.7169 222.743 26.9758 222.743 26.2347C222.743 25.4937 222.474 24.7526 221.936 24.2137C221.397 23.6747 220.657 23.4053 219.916 23.4053C219.176 23.4726 218.435 23.7421 217.897 24.2811ZM243.88 19.7674C243.88 14.1084 247.313 10.4032 252.833 10.4032C258.353 10.4032 261.786 14.1758 261.786 19.7674C261.786 25.4263 258.353 29.1316 252.833 29.1316C247.313 29.1316 243.88 25.4263 243.88 19.7674ZM256.602 19.7674C256.602 16.6011 255.256 14.2432 252.833 14.2432C250.342 14.2432 248.996 16.6011 248.996 19.7674C248.996 22.9337 250.342 25.2916 252.833 25.2916C255.391 25.2916 256.602 22.9337 256.602 19.7674Z" fill="#A0A2AE"/>
</g>
<defs>
<clipPath id="clip0_10_169">
<rect width="291" height="32" fill="white" transform="translate(0 0.5)"/>
</clipPath>
</defs>
</svg>
