<svg width="171" height="31" viewBox="0 0 171 31" fill="none" xmlns="http://www.w3.org/2000/svg">
<g clip-path="url(#clip0_10_178)">
<path d="M10.2053 30.5C6.95278 30.5 4.54779 29.4335 2.95001 27.6386C1.34451 25.8351 0.5 23.2352 0.5 20.0743C0.5 15.1654 2.15026 10.2563 5.01418 6.58357C7.87409 2.916 11.9255 0.5 16.7501 0.5C20.1703 0.5 22.9867 1.56503 24.8035 4.12059L22.0022 7.68957C20.7899 5.89677 19.0828 4.81605 17.1434 4.81605C15.6043 4.81605 14.2533 5.63842 13.1179 6.84641C11.9813 8.05573 11.0145 9.69788 10.2312 11.4606C8.66742 14.9798 7.77924 19.1096 7.77924 21.5578C7.77924 22.7718 7.9771 23.8449 8.48825 24.6282C9.02305 25.4477 9.86169 25.8903 10.9718 25.8903C13.3182 25.8903 16.1031 24.5014 18.537 22.36L20.5718 26.1794C17.8037 28.8903 14.3535 30.5 10.2053 30.5Z" fill="#A0A2AE" stroke="black"/>
<path d="M59.6489 20.3006H59.2792L59.1709 20.6541L56.3951 29.7119H49.7528L58.2964 1.27267H71.9417C74.0192 1.27267 75.4518 2.02647 76.3788 3.21808C77.3205 4.42862 77.7848 6.14924 77.7848 8.14406C77.7848 10.4034 77.1357 12.8161 75.9547 14.8383C74.7733 16.861 73.0813 18.4585 71.0161 19.1521L70.5537 19.3075L70.6976 19.7736L73.7651 29.7119H66.7597L64.3575 20.6722L64.2588 20.3006H63.8743H59.6489ZM64.2575 4.69241H63.8887L63.7798 5.04473L60.3209 16.2332L60.1206 16.8808H60.7986H65.2256C67.0033 16.8808 68.4337 15.6862 69.3918 14.1408C70.3554 12.5868 70.9089 10.5825 70.9089 8.7313C70.9089 7.78144 70.7058 6.79752 70.2345 6.03305C69.7514 5.24919 68.9777 4.69241 67.908 4.69241H64.2575Z" fill="#A0A2AE" stroke="black"/>
<path d="M145.419 1.27267L136.876 29.7273H130.048L138.777 1.27267H145.419Z" fill="#A0A2AE" stroke="black"/>
<path d="M152.364 20.3006H151.994L151.886 20.6543L149.11 29.7273H142.468L151.002 1.27267H164.657C166.729 1.27267 168.162 2.02627 169.09 3.21831C170.034 4.42907 170.5 6.14977 170.5 8.14406C170.5 10.4034 169.851 12.8161 168.67 14.8383C167.489 16.861 165.797 18.4585 163.731 19.1521L163.269 19.3074L163.413 19.7734L166.481 29.7273H159.475L157.073 20.6724L156.974 20.3006H156.59H152.364ZM156.973 4.69241H156.604L156.495 5.04474L153.036 16.2332L152.836 16.8808H153.514H157.931C159.713 16.8808 161.146 15.6869 162.106 14.1411C163.071 12.5869 163.624 10.5825 163.624 8.7313C163.624 7.78033 163.418 6.7965 162.946 6.03247C162.462 5.24985 161.689 4.69241 160.623 4.69241H156.973Z" fill="#A0A2AE" stroke="black"/>
<path d="M127.43 1.27267L126.875 29.7273H119.813L119.989 23.7515L120.004 23.2368H119.489H111.412H111.127L110.981 23.4821L107.284 29.7273H101.712L118.234 1.27267H127.43ZM120.564 8.45525L119.632 8.18611L113.289 19.0809L112.851 19.8325H113.721H119.681H120.164L120.18 19.3501L120.564 8.45525Z" fill="#A0A2AE" stroke="black"/>
<path d="M33.5607 30.5C30.3938 30.5 28.139 29.504 26.6665 27.7919C25.1831 26.0671 24.4302 23.5424 24.4302 20.3679C24.4302 15.3081 26.174 10.3263 29.111 6.61742C32.0455 2.91168 36.1488 0.5 40.8819 0.5C44.0338 0.5 46.3423 1.56315 47.8699 3.32027C49.4066 5.08773 50.2041 7.61641 50.2041 10.6321C50.2041 15.823 48.3192 20.8028 45.2863 24.4791C42.2535 28.1553 38.0997 30.5 33.5607 30.5ZM40.6601 4.70788C38.4839 4.70788 36.843 6.00672 35.553 7.93137C34.2673 9.84962 33.272 12.4702 32.3876 15.3047C31.5214 18.0751 30.8737 20.7133 30.9599 22.6789C31.0032 23.6659 31.2337 24.5554 31.7851 25.2029C32.3522 25.8688 33.1896 26.1994 34.2666 26.1994C36.441 26.1994 38.0994 24.9026 39.4072 22.9786C40.7113 21.0601 41.7246 18.4394 42.6097 15.6026C43.4913 12.7771 44.1221 10.1368 44.0132 8.18192C43.9584 7.19913 43.7136 6.31974 43.151 5.68249C42.5744 5.02934 41.7337 4.70788 40.6601 4.70788Z" fill="#A0A2AE" stroke="black"/>
<path d="M91.8338 22.4387C91.8338 21.184 91.0817 20.2283 90.1282 19.4154C89.4685 18.853 88.6444 18.3054 87.8034 17.7467C87.4423 17.5068 87.078 17.2647 86.7224 17.0186C84.2953 15.339 82.0419 13.3333 82.0419 9.7667C82.0419 6.13982 83.7992 3.85524 86.3786 2.44789C88.9921 1.02187 92.4554 0.5 95.781 0.5C99.2358 0.5 102.496 1.04952 104.374 1.63847L103.311 5.64872C101.211 5.1188 99.0913 4.84696 96.9608 4.84696C95.5015 4.84696 93.9729 4.99289 92.7927 5.51567C92.1958 5.78007 91.6659 6.15039 91.2855 6.66752C90.9011 7.19012 90.6926 7.83135 90.6926 8.59222C90.6926 9.91791 91.4652 10.9105 92.462 11.7427C93.1827 12.3444 94.0872 12.9139 95.0045 13.4915C95.3398 13.7027 95.6768 13.9149 96.0072 14.1302C98.5372 15.7786 100.868 17.711 100.868 21.2642C100.868 24.5796 99.083 26.8651 96.3894 28.3483C93.6749 29.843 90.0635 30.5 86.5538 30.5C83.5268 30.5 79.8804 29.785 77.6743 28.8934L78.8936 24.9197C81.2499 25.8329 84.3137 26.1839 86.1404 26.1839C88.0073 26.1839 89.4228 25.8876 90.3844 25.2557C91.3847 24.5984 91.8338 23.6186 91.8338 22.4387Z" fill="#A0A2AE" stroke="black"/>
</g>
<defs>
<clipPath id="clip0_10_178">
<rect width="171" height="31" fill="white"/>
</clipPath>
</defs>
</svg>
